# xmcd
#
# Track frame offsets: 
#        150
#        16658
#        35571
#        51500
#        71139
#        88569
#        108040
#        120885
#        133740
#        150206
#        164403
#        181591
#        197928
#        212282
#        227773
#        242598
#        258885
#        272354
#        285852
#        305119
#
# Disc length: 4227 seconds
#
# Revision: 0
# Processed by: cddbd v1.5.2PL0 Copyright (c) Steve Scherf et al.
# Submitted via: ExactAudioCopyFreeDBPlugin 1.0
#
DISCID=fc108114
DTITLE=Kenny Rogers - Lucile - The Collection
DYEAR=2015
DGENRE=Country
TTITLE0=Lucille
TTITLE1=She Believes in Me
TTITLE2=The Gambler
TTITLE3=Through the Years
TTITLE4=Lady
TTITLE5=Coward of the County
TTITLE6=Love Or Something Like It
TTITLE7=Ruby, Don't Take Your  Love to Town
TTITLE8=Don't Fall in Love with a Dreamer
TTITLE9=Daytime Friends
TTITLE10=We've Got Tonight
TTITLE11=You Decorated My Life
TTITLE12=Love the World Away
TTITLE13=I Don't Need You
TTITLE14=Share Your Love With Me
TTITLE15=Love Will Turn You Around
TTITLE16=What Are We Doin' in Love
TTITLE17=Every Time Two Fools Collide
TTITLE18=Sweet Music Man
TTITLE19=Blaze of Glory
EXTD=
EXTT0=
EXTT1=
EXTT2=
EXTT3=
EXTT4=
EXTT5=
EXTT6=
EXTT7=
EXTT8=
EXTT9=
EXTT10=
EXTT11=
EXTT12=
EXTT13=
EXTT14=
EXTT15=
EXTT16=
EXTT17=
EXTT18=
EXTT19=
PLAYORDER=
